<?xml version="1.0" encoding="UTF-8"?>
<svg id="Capa_1" xmlns="http://www.w3.org/2000/svg" version="1.1" viewBox="0 0 697.29 667.04">
  <!-- Generator: Adobe Illustrator 29.3.1, SVG Export Plug-In . SVG Version: 2.1.0 Build 151)  -->
  <defs>
    <style>
      .st0 {
        fill: #faba00;
      }

      .st1 {
        fill: #5a606b;
      }

      .st2 {
        font-family: Wintter-Regular, Wintter;
        font-size: 290.91px;
      }

      .st2, .st3, .st4 {
        fill: #454f56;
      }

      .st2, .st4 {
        display: none;
      }

      .st5 {
        fill: #f5a20a;
      }

      .st6 {
        fill: #fbbd00;
      }

      .st4 {
        font-family: Elephant-Regular, Elephant;
        font-size: 265.8px;
      }

      .st7 {
        fill: #ffd369;
      }
    </style>
  </defs>
  <text class="st2" transform="translate(771.82 494.81)"><tspan x="0" y="0">ProductCords</tspan></text>
  <text class="st4" transform="translate(771.82 445.62)"><tspan x="0" y="0">ProductCords</tspan></text>
  <g>
    <g>
      <path class="st5" d="M367.86,198.71c.04,7.45-5.97,13.51-13.42,13.54l-138.88.69c-7.45.04-13.51-5.97-13.55-13.41l-.7-142.97c-.04-7.45,5.97-13.51,13.41-13.55l138.89-.69c7.45-.04,13.51,5.97,13.54,13.42l.71,142.97Z"/>
      <path class="st6" d="M399.42,198.55c.03,7.44-5.98,13.51-13.42,13.54l-138.88.69c-7.45.04-13.51-5.97-13.55-13.41l-.7-142.97c-.04-7.45,5.97-13.51,13.41-13.55l138.89-.69c7.44-.04,13.51,5.97,13.54,13.42l.71,142.97Z"/>
      <polygon class="st7" points="292.85 42.63 293.14 99.81 293.17 106.35 293.22 116.52 296.79 109.48 300.68 116.93 304.48 109.44 308.36 116.89 312.16 109.4 316.04 116.86 319.84 109.37 323.72 116.82 327.53 109.32 331.4 116.78 335.2 109.29 338.97 116.52 338.92 106.12 338.89 99.59 338.6 42.4 292.85 42.63"/>
    </g>
    <g>
      <path class="st5" d="M373.71,386.91c.04,8.39-6.72,15.22-15.1,15.26l-156.42.77c-8.38.04-15.21-6.72-15.26-15.11l-.79-161.01c-.04-8.39,6.72-15.21,15.11-15.26l156.41-.77c8.39-.04,15.21,6.73,15.26,15.11l.79,161.01Z"/>
      <path class="st0" d="M409.27,386.73c.04,8.39-6.72,15.21-15.11,15.26l-156.41.77c-8.39.04-15.22-6.72-15.26-15.11l-.8-161.02c-.04-8.38,6.73-15.21,15.11-15.26l156.41-.77c8.38-.04,15.21,6.73,15.26,15.11l.79,161.01Z"/>
      <polygon class="st7" points="289.25 211.13 289.57 275.53 289.6 282.89 289.66 294.35 293.68 286.42 298.05 294.81 302.34 286.38 306.71 294.77 310.99 286.33 315.36 294.73 319.64 286.29 324.01 294.68 328.3 286.25 332.67 294.64 336.95 286.21 341.18 294.35 341.13 282.64 341.09 275.28 340.77 210.88 289.25 211.13"/>
    </g>
    <g>
      <path class="st5" d="M560.01,328.61c3.83,7.87.55,17.35-7.32,21.17l-146.81,71.33c-7.86,3.82-17.35.55-21.17-7.33l-73.43-151.12c-3.83-7.87-.55-17.34,7.32-21.17l146.81-71.33c7.87-3.83,17.35-.55,21.17,7.32l73.43,151.12Z"/>
      <path class="st0" d="M593.38,312.39c3.83,7.88.54,17.36-7.33,21.18l-146.8,71.33c-7.87,3.83-17.35.55-21.18-7.32l-73.43-151.12c-3.83-7.87-.54-17.35,7.33-21.17l146.81-71.33c7.87-3.82,17.35-.55,21.17,7.32l73.43,151.12Z"/>
      <polygon class="st7" points="401.19 201.36 430.56 261.81 433.92 268.72 439.14 279.46 439.35 270.2 447.25 276.12 447.48 266.25 455.37 272.17 455.6 262.3 463.49 268.22 463.72 258.36 471.62 264.28 471.84 254.41 479.74 260.33 479.96 250.46 487.62 256.21 482.28 245.23 478.92 238.31 449.55 177.87 401.19 201.36"/>
    </g>
    <path class="st3" d="M534.69,431.34H183.98c-6.77,0-12.67-4.62-14.29-11.2L100.96,140.77c-1.11-4.51-.03-9.28,2.92-12.87,2.95-3.58,7.37-5.55,12.07-5.35,47.14,2.24,461.24,22.02,483.32,25.08,17.49,2.43,30.81,9.7,38.53,21.01,5.03,7.38,10.06,20.23,5.44,39.49-1.7,7.05-4.89,20.52-8.78,36.95-10.95,46.15-27.47,115.9-31.86,132.16-7.85,29.14-43.9,54.1-67.9,54.1ZM195.51,401.92h339.18c11.03,0,35.16-16.3,39.49-32.34,4.27-15.83,20.74-85.31,31.64-131.29,3.91-16.46,7.1-29.97,8.8-37.04,1.7-7.05,1.32-12.45-1.13-16.04-2.87-4.21-9.35-7.2-18.26-8.44-15.15-2.1-276.77-15.09-460.97-23.89l61.26,249.03Z"/>
    <g>
      <path class="st3" d="M309.68,596.6c.14,27.59-22.12,50.05-49.7,50.2-27.59.14-50.06-22.12-50.19-49.71-.14-27.59,22.11-50.06,49.7-50.2,27.59-.14,50.06,22.11,50.2,49.71Z"/>
      <path class="st1" d="M289.45,596.7c.08,16.41-13.16,29.79-29.57,29.87-16.42.08-29.79-13.16-29.87-29.58-.08-16.41,13.16-29.78,29.57-29.86,16.42-.09,29.78,13.16,29.87,29.57Z"/>
    </g>
    <g>
      <path class="st3" d="M581.84,596.6c.14,27.59-22.11,50.05-49.7,50.2-27.59.14-50.06-22.12-50.19-49.71-.14-27.59,22.11-50.06,49.7-50.2,27.59-.14,50.06,22.11,50.19,49.71Z"/>
      <path class="st1" d="M561.61,596.7c.08,16.41-13.15,29.79-29.57,29.87-16.42.08-29.78-13.16-29.86-29.58-.08-16.41,13.16-29.78,29.57-29.86,16.42-.09,29.79,13.16,29.86,29.57Z"/>
    </g>
    <path class="st3" d="M275.36,593.8c0,8.63-7,15.63-15.63,15.63h0c-8.63,0-15.64-7-15.64-15.63v-53.34c0-8.63,7-15.63,15.64-15.63h0c8.63,0,15.63,7,15.63,15.63v53.34Z"/>
    <path class="st3" d="M547.53,593.8c0,8.63-7,15.63-15.64,15.63h0c-8.64,0-15.64-7-15.64-15.63v-53.34c0-8.63,7-15.63,15.64-15.63h0c8.63,0,15.64,7,15.64,15.63v53.34Z"/>
    <path class="st3" d="M595.55,544.92H209.73c-6.76,0-12.65-4.61-14.28-11.17-.93-3.76-93.39-376.24-106.23-430.39-2.58-10.87-7.66-18.52-15.54-23.37-17.44-10.73-42.84-4.84-43.09-4.78-7.89,1.88-15.84-2.96-17.74-10.84-1.91-7.88,2.88-15.81,10.75-17.75,1.51-.37,37.3-8.91,65.31,8.19,14.78,9.02,24.51,23.07,28.94,41.76,11.54,48.68,87.8,356.1,103.38,418.92h374.31c8.12,0,14.71,6.59,14.71,14.71s-6.59,14.71-14.71,14.71Z"/>
    <path class="st3" d="M404.75,431.34c-8.12,0-14.72-6.59-14.72-14.71V151.43c0-8.13,6.59-14.71,14.72-14.71s14.72,6.59,14.72,14.71v265.2c0,8.13-6.59,14.71-14.72,14.71Z"/>
    <path class="st3" d="M300.35,431.35c-6.97,0-13.16-4.97-14.46-12.07l-50-273.39c-1.46-7.99,3.84-15.66,11.83-17.12,7.99-1.46,15.66,3.83,17.12,11.83l50,273.39c1.46,7.99-3.84,15.66-11.83,17.12-.89.16-1.78.24-2.66.24Z"/>
    <path class="st3" d="M491.28,431.35c-.88,0-1.77-.08-2.66-.24-7.99-1.46-13.29-9.13-11.83-17.12l47.22-258.2c1.46-7.99,9.13-13.3,17.12-11.83,7.99,1.46,13.29,9.13,11.83,17.12l-47.22,258.2c-1.3,7.1-7.49,12.07-14.46,12.07Z"/>
    <path class="st3" d="M610.08,298.74H151.34c-8.13,0-14.71-6.59-14.71-14.71s6.59-14.71,14.71-14.71h458.74c8.12,0,14.71,6.59,14.71,14.71s-6.59,14.71-14.71,14.71Z"/>
  </g>
</svg>