<?xml version="1.0" encoding="UTF-8"?>
<svg id="Capa_1" xmlns="http://www.w3.org/2000/svg" version="1.1" viewBox="0 0 640 640">
  <!-- Generator: Adobe Illustrator 29.3.1, SVG Export Plug-In . SVG Version: 2.1.0 Build 151)  -->
  <defs>
    <style>
      .st0 {
        fill: #eaab1c;
      }

      .st1 {
        fill: #b0d852;
      }

      .st2 {
        fill: #f5a20a;
      }

      .st3 {
        fill: #ffc43f;
      }

      .st4 {
        fill: #eac165;
      }

      .st5 {
        fill: #fbbd00;
      }

      .st6 {
        fill: #cfd9fb;
      }

      .st7 {
        stroke: #f5a20a;
      }

      .st7, .st8 {
        fill: none;
        stroke-miterlimit: 10;
        stroke-width: 1.14px;
      }

      .st9 {
        fill: #092d76;
      }

      .st10 {
        fill: #f97b9f;
      }

      .st8 {
        stroke: #fff;
      }

      .st11 {
        fill: #fefefe;
      }

      .st12 {
        fill: #ffd369;
      }
    </style>
  </defs>
  <g id="Capa_2">
    <path class="st2" d="M367.02,34.69s-15.51-.87-26.49,8.92,16.12,2.04,16.12,2.04l10.37-10.96Z"/>
    <path class="st2" d="M430.35,196.19l32.28-109.14c1.68-5.68-1.56-11.66-7.24-13.34l-106.03-31.36c-5.68-1.68-11.65,1.56-13.33,7.25l-32.29,109.14"/>
    <path class="st2" d="M463.41,87.05c1.68-5.68-1.56-11.66-7.24-13.34l-106.03-31.36c-5.68-1.68-11.65,1.56-13.33,7.25l-32.29,109.14"/>
    <path class="st5" d="M450.01,188.97l32.28-109.14c1.68-5.68-1.56-11.66-7.24-13.34l-106.03-31.36c-5.68-1.68-11.65,1.56-13.33,7.25l-32.29,109.14"/>
    <polyline class="st12" points="422.76 112.56 425.11 104.62 426.59 99.64 439.5 55.98 404.57 45.65 391.66 89.3 390.18 94.29 387.89 102.05"/>
    <polyline class="st12" points="414.48 105.48 419.1 100.64 420.3 107.02"/>
    <polyline class="st12" points="393.68 103.7 389.07 108.54 387.82 101.97"/>
    <polyline class="st12" points="400.01 105.47 395.39 110.31 394.15 103.73"/>
    <polyline class="st12" points="404.9 106.99 400.29 111.83 399.05 105.26"/>
    <polyline class="st12" points="410.85 108.75 406.24 113.59 404.99 107.02"/>
    <polyline class="st12" points="416.71 110.28 412.1 115.11 410.85 108.54"/>
    <polyline class="st12" points="422.76 112.52 418.15 117.36 416.9 110.79"/>
    <polyline class="st12" points="410.85 84.36 415.47 79.53 416.72 86.1"/>
    <polyline class="st12" points="407.96 90.71 412.3 86.16 413.55 92.74"/>
    <line class="st8" x1="370.35" y1="73.86" x2="360.49" y2="106.52"/>
    <path class="st2" d="M355.78,216.22l13.95-112.96c.73-5.88-3.45-11.24-9.33-11.97l-109.73-13.55c-5.88-.73-11.24,3.45-11.97,9.34l-13.95,112.96,15.41,9.83"/>
    <path class="st2" d="M240.15,202.59l13.95-112.96c.73-5.89,6.09-10.06,11.97-9.34l109.73,13.55c5.89.73,10.06,6.09,9.33,11.97l-13.95,112.96"/>
    <path class="st5" d="M240.15,209.86l13.95-112.96c.72-5.89,6.09-10.06,11.97-9.34l109.73,13.55c5.88.73,10.06,6.09,9.33,11.97l-13.95,112.96"/>
    <polyline class="st12" points="331.77 155.14 332.79 146.93 333.43 141.77 339.01 96.58 302.86 92.12 297.28 137.29 296.64 142.46 295.65 150.5"/>
    <polyline class="st12" points="304.52 151.44 300.78 156.98 298.52 150.89"/>
    <polyline class="st12" points="310.59 152.16 306.85 157.71 304.52 151.44"/>
    <polyline class="st12" points="316.67 152.9 312.92 158.44 310.59 152.16"/>
    <polyline class="st12" points="322.73 153.63 318.99 159.17 316.67 152.9"/>
    <polyline class="st12" points="328.81 154.36 325.06 159.9 322.73 153.63"/>
    <polyline class="st12" points="296.29 149.73 300.33 144.91 302.01 151.39"/>
    <polygon class="st4" points="299.69 83.8 302.86 92.12 339.01 96.58 329.76 87.51 299.69 83.8"/>
    <polygon class="st2" points="449.96 188.9 430.35 196.19 433.9 184.19 449.96 188.9"/>
    <line class="st7" x1="465.3" y1="172.64" x2="455.45" y2="205.3"/>
    <line class="st7" x1="211.5" y1="136.03" x2="206.49" y2="169.76"/>
    <line class="st7" x1="200.52" y1="110.79" x2="195.5" y2="144.53"/>
    <line class="st7" x1="227.25" y1="95.69" x2="222.23" y2="129.43"/>
    <line class="st7" x1="485.01" y1="155.14" x2="475.16" y2="187.8"/>
    <line class="st7" x1="383.41" y1="190.19" x2="380.08" y2="224.13"/>
    <line class="st7" x1="478.48" y1="118.24" x2="468.62" y2="150.89"/>
    <line class="st8" x1="409.92" y1="136.57" x2="400.06" y2="169.22"/>
    <line class="st8" x1="281.1" y1="132.52" x2="277.7" y2="166.46"/>
    <line class="st8" x1="306.22" y1="173.22" x2="302.82" y2="207.16"/>
    <line class="st8" x1="354.17" y1="139.06" x2="350.77" y2="173"/>
    <line class="st8" x1="455.45" y1="92.22" x2="445.59" y2="124.87"/>
  </g>
  <g>
    <g>
      <path class="st3" d="M271.01,233.92c77.12-.07,154.29.05,231.4,0l-41.96,171.26c-2.19,8.49-9.12,11.87-17.36,12.58-56.03-.25-112.08.21-168.1-.04-34.06-46.63-39.78-110.17-15.14-162.51,3.43-7.3,8.51-13.75,11.15-21.3ZM275.74,280.08c-3.99.37-9.07,4.05-9.66,8.34,1.51,23.12-2.2,49.15-.1,71.92,1.25,13.5,19.07,13.79,20.9.86-1.47-22.38,2.27-47.89.14-69.89-.58-5.95-4.51-11.86-11.28-11.23ZM349.55,280.08c-4.98.47-8.74,4.53-9.65,9.35,1.47,22.45-2.17,47.81-.1,69.9,1.31,14,16.5,15.49,20.93,2.9-1.56-22.72,2.27-48.59.11-70.92-.58-5.95-4.51-11.86-11.28-11.23ZM423.36,280.08c-4.98.47-8.74,4.53-9.65,9.35,1.46,22.46-2.16,47.79-.1,69.9,1.28,13.71,16.63,15.55,20.93,2.9-1.51-23.12,2.2-49.15.1-71.92-.53-5.76-5.2-10.81-11.28-10.23Z"/>
      <path class="st0" d="M271.01,233.92c-2.64,7.55-7.71,14.01-11.15,21.3-24.64,52.34-18.92,115.88,15.14,162.51-11.66-.05-27.42,1.32-38.46.06-1.43-.16-2.63-.11-3.36-1.63l-53.95-181.73c30.54-.96,61.21-.48,91.78-.51Z"/>
      <line class="st6" x1="442.57" y1="212.94" x2="385.72" y2="212.94"/>
      <line class="st10" x1="243.09" y1="212.94" x2="219.15" y2="212.94"/>
      <line class="st1" x1="365.77" y1="212.94" x2="264.03" y2="212.94"/>
      <ellipse class="st6" cx="300.01" cy="509.71" rx="19.22" ry="19.25"/>
      <ellipse class="st6" cx="449.51" cy="509.71" rx="19.21" ry="19.24"/>
      <path class="st11" d="M478.48,212.94h-14.96"/>
      <path class="st11" d="M275.74,280.08c6.77-.63,10.7,5.28,11.28,11.23,2.13,21.99-1.61,47.51-.14,69.89-1.84,12.93-19.66,12.64-20.9-.86-2.1-22.76,1.62-48.8.1-71.92.59-4.29,5.67-7.97,9.66-8.34Z"/>
      <path class="st11" d="M423.36,280.08c6.08-.57,10.75,4.47,11.28,10.23,2.09,22.77-1.61,48.79-.1,71.92-4.3,12.65-19.65,10.81-20.93-2.9-2.06-22.11,1.56-47.44.1-69.9.91-4.82,4.67-8.88,9.65-9.35Z"/>
      <path class="st11" d="M349.55,280.08c6.77-.63,10.71,5.29,11.28,11.23,2.16,22.33-1.67,48.2-.11,70.92-4.43,12.58-19.61,11.1-20.93-2.9-2.07-22.1,1.57-47.45.1-69.9.91-4.81,4.67-8.88,9.65-9.35Z"/>
    </g>
    <path class="st9" d="M539.85,212.91c-5.42-.66-28.71.72-37.37.14H183.21v-.12h-9.45c-6.42-8.16-5.47-32.36-17.18-34.74-17.46,1.28-39.64-2.54-56.53-.14-12.75,1.82-12.58,18.96.99,20.8,6.74.92,44.44-1.32,46.2.19l67.68,227.41c2.22,19.16-6.53,50.55,14.5,61.4.86.45,6.8,2.79,7.19,2.79h27.43c-7.41,19.6-3.59,41.88,15.27,53.14,29.01,17.32,64.1-6.22,60.26-39.37-.58-4.99-2.87-9-3.71-13.76h77.8c-7.6,19.56-3.76,41.18,14.66,52.75,34.88,21.9,75.37-16.93,56.16-52.74,7.84.26,18.95.98,20.55-8.98,1.32-8.23-6.77-12.29-14.03-12.05l-249.45.09c-1.97.7-5.44-3.33-5.44-4.54v-25.97c0-.11,1.39-1.5,1.5-1.5h215.44c9.94,0,26.2-16.22,27.37-26.53l43.83-176.68c.9-1.32,11.71-.29,14.49-.67,13.68-1.85,14.1-19.34,1.11-20.92ZM449.51,490.48c10.61,0,19.21,8.61,19.21,19.24s-8.6,19.24-19.21,19.24-19.21-8.61-19.21-19.24,8.6-19.24,19.21-19.24ZM300.01,490.47c10.61,0,19.22,8.62,19.22,19.25s-8.6,19.25-19.22,19.25-19.22-8.62-19.22-19.25,8.6-19.25,19.22-19.25ZM460.46,405.18c-2.19,8.49-9.12,11.87-17.36,12.58-56.03-.25-112.08.21-168.1-.04-11.66-.05-27.42,1.32-38.46.06-1.43-.16-2.63-.11-3.36-1.63l-53.95-181.73c30.54-.96,61.21-.48,91.78-.51,77.12-.07,154.29.05,231.4,0l-41.96,171.26Z"/>
  </g>
</svg>