<?xml version="1.0" encoding="UTF-8"?>
<svg id="Capa_1" xmlns="http://www.w3.org/2000/svg" version="1.1" viewBox="0 0 697.3 667">
  <!-- Generator: Adobe Illustrator 29.3.1, SVG Export Plug-In . SVG Version: 2.1.0 Build 151)  -->
  <defs>
    <style>
      .st0 {
        fill: #faba00;
      }

      .st1 {
        fill: #5a606b;
      }

      .st2 {
        fill: #1d1d1b;
        stroke: #fff;
        stroke-linejoin: round;
        stroke-width: 76.4px;
      }

      .st3 {
        fill: #454f56;
      }

      .st4 {
        fill: #f5a20a;
      }

      .st5 {
        fill: #fbbd00;
      }

      .st6 {
        fill: #ffd369;
      }
    </style>
  </defs>
  <g>
    <g>
      <path class="st2" d="M368.7,203.7c0,6.6-5.3,12-12,12.1l-123.7.6c-6.6,0-12-5.3-12.1-11.9l-.6-127.3c0-6.6,5.3-12,11.9-12.1l123.7-.6c6.6,0,12,5.3,12.1,12l.6,127.3h0Z"/>
      <path class="st2" d="M396.8,203.6c0,6.6-5.3,12-12,12.1l-123.7.6c-6.6,0-12-5.3-12.1-11.9l-.6-127.3c0-6.6,5.3-12,11.9-12.1l123.7-.6c6.6,0,12,5.3,12.1,12l.6,127.3h0Z"/>
      <polygon class="st2" points="301.9 64.7 302.2 115.6 302.2 121.5 302.2 130.5 305.4 124.3 308.9 130.9 312.3 124.2 315.7 130.9 319.1 124.2 322.6 130.8 325.9 124.2 329.4 130.8 332.8 124.1 336.2 130.8 339.6 124.1 343 130.5 342.9 121.3 342.9 115.4 342.6 64.5 301.9 64.7"/>
    </g>
    <g>
      <path class="st2" d="M373.9,371.3c0,7.5-6,13.6-13.4,13.6l-139.3.7c-7.5,0-13.5-6-13.6-13.5l-.7-143.4c0-7.5,6-13.5,13.5-13.6l139.3-.7c7.5,0,13.5,6,13.6,13.5l.7,143.4h0Z"/>
      <path class="st2" d="M405.6,371.1c0,7.5-6,13.5-13.5,13.6l-139.3.7c-7.5,0-13.6-6-13.6-13.5l-.7-143.4c0-7.5,6-13.5,13.5-13.6l139.3-.7c7.5,0,13.5,6,13.6,13.5l.7,143.4h0Z"/>
      <polygon class="st2" points="298.7 214.8 299 272.1 299 278.7 299.1 288.9 302.6 281.8 306.5 289.3 310.4 281.8 314.2 289.3 318.1 281.7 321.9 289.2 325.8 281.7 329.6 289.2 333.5 281.7 337.4 289.1 341.2 281.6 344.9 288.9 344.9 278.5 344.9 271.9 344.6 214.6 298.7 214.8"/>
    </g>
    <g>
      <path class="st2" d="M539.8,319.4c3.4,7,.5,15.4-6.5,18.9l-130.7,63.5c-7,3.4-15.4.5-18.9-6.5l-65.4-134.6c-3.4-7-.5-15.4,6.5-18.9l130.7-63.5c7-3.4,15.4-.5,18.9,6.5l65.4,134.6h0Z"/>
      <path class="st2" d="M569.5,304.9c3.4,7,.5,15.5-6.5,18.9l-130.7,63.5c-7,3.4-15.4.5-18.9-6.5l-65.4-134.6c-3.4-7-.5-15.4,6.5-18.9l130.7-63.5c7-3.4,15.4-.5,18.9,6.5l65.4,134.6h0Z"/>
      <polygon class="st2" points="398.4 206.1 424.5 259.9 427.5 266.1 432.2 275.6 432.4 267.4 439.4 272.6 439.6 263.9 446.6 269.1 446.8 260.3 453.9 265.6 454.1 256.8 461.1 262.1 461.3 253.3 468.3 258.6 468.5 249.8 475.3 254.9 470.6 245.1 467.6 239 441.4 185.2 398.4 206.1"/>
    </g>
    <path class="st2" d="M517.3,410.9H205c-6,0-11.3-4.1-12.7-10l-61.2-248.8c-1-4,0-8.3,2.6-11.5,2.6-3.2,6.6-4.9,10.7-4.8,42,2,410.7,19.6,430.4,22.3,15.6,2.2,27.4,8.6,34.3,18.7,4.5,6.6,9,18,4.8,35.2-1.5,6.3-4.4,18.3-7.8,32.9-9.8,41.1-24.5,103.2-28.4,117.7-7,25.9-39.1,48.2-60.5,48.2h0ZM215.2,384.7h302c9.8,0,31.3-14.5,35.2-28.8,3.8-14.1,18.5-76,28.2-116.9,3.5-14.7,6.3-26.7,7.8-33,1.5-6.3,1.2-11.1-1-14.3-2.6-3.7-8.3-6.4-16.3-7.5-13.5-1.9-246.5-13.4-410.5-21.3l54.6,221.8h0Z"/>
    <g>
      <path class="st2" d="M316.9,558c.1,24.6-19.7,44.6-44.3,44.7-24.6.1-44.6-19.7-44.7-44.3-.1-24.6,19.7-44.6,44.3-44.7,24.6-.1,44.6,19.7,44.7,44.3h0Z"/>
      <path class="st2" d="M298.9,558.1c0,14.6-11.7,26.5-26.3,26.6-14.6,0-26.5-11.7-26.6-26.3,0-14.6,11.7-26.5,26.3-26.6,14.6,0,26.5,11.7,26.6,26.3Z"/>
    </g>
    <g>
      <path class="st2" d="M559.2,558c.1,24.6-19.7,44.6-44.3,44.7-24.6.1-44.6-19.7-44.7-44.3-.1-24.6,19.7-44.6,44.3-44.7,24.6-.1,44.6,19.7,44.7,44.3Z"/>
      <path class="st2" d="M541.2,558.1c0,14.6-11.7,26.5-26.3,26.6-14.6,0-26.5-11.7-26.6-26.3,0-14.6,11.7-26.5,26.3-26.6,14.6,0,26.5,11.7,26.6,26.3Z"/>
    </g>
    <path class="st2" d="M286.3,555.5c0,7.7-6.2,13.9-13.9,13.9h0c-7.7,0-13.9-6.2-13.9-13.9v-47.5c0-7.7,6.2-13.9,13.9-13.9h0c7.7,0,13.9,6.2,13.9,13.9v47.5Z"/>
    <path class="st2" d="M528.7,555.5c0,7.7-6.2,13.9-13.9,13.9h0c-7.7,0-13.9-6.2-13.9-13.9v-47.5c0-7.7,6.2-13.9,13.9-13.9h0c7.7,0,13.9,6.2,13.9,13.9v47.5Z"/>
    <path class="st2" d="M571.5,512H227.9c-6,0-11.3-4.1-12.7-9.9-.8-3.3-83.2-335-94.6-383.3-2.3-9.7-6.8-16.5-13.8-20.8-15.5-9.6-38.1-4.3-38.4-4.3-7,1.7-14.1-2.6-15.8-9.7-1.7-7,2.6-14.1,9.6-15.8,1.3-.3,33.2-7.9,58.2,7.3,13.2,8,21.8,20.5,25.8,37.2,10.3,43.3,78.2,317.1,92.1,373h333.3c7.2,0,13.1,5.9,13.1,13.1s-5.9,13.1-13.1,13.1h0Z"/>
    <path class="st2" d="M401.5,410.9c-7.2,0-13.1-5.9-13.1-13.1v-236.2c0-7.2,5.9-13.1,13.1-13.1s13.1,5.9,13.1,13.1v236.2c0,7.2-5.9,13.1-13.1,13.1Z"/>
    <path class="st2" d="M308.6,410.9c-6.2,0-11.7-4.4-12.9-10.7l-44.5-243.5c-1.3-7.1,3.4-13.9,10.5-15.2,7.1-1.3,13.9,3.4,15.2,10.5l44.5,243.5c1.3,7.1-3.4,13.9-10.5,15.2-.8.1-1.6.2-2.4.2h0Z"/>
    <path class="st2" d="M478.6,410.9c-.8,0-1.6,0-2.4-.2-7.1-1.3-11.8-8.1-10.5-15.2l42-229.9c1.3-7.1,8.1-11.8,15.2-10.5,7.1,1.3,11.8,8.1,10.5,15.2l-42,229.9c-1.2,6.3-6.7,10.7-12.9,10.7h0Z"/>
    <path class="st2" d="M584.4,292.8H175.9c-7.2,0-13.1-5.9-13.1-13.1s5.9-13.1,13.1-13.1h408.5c7.2,0,13.1,5.9,13.1,13.1s-5.9,13.1-13.1,13.1h0Z"/>
  </g>
  <g>
    <g>
      <path class="st4" d="M368.7,203.7c0,6.6-5.3,12-12,12.1l-123.7.6c-6.6,0-12-5.3-12.1-11.9l-.6-127.3c0-6.6,5.3-12,11.9-12.1l123.7-.6c6.6,0,12,5.3,12.1,12l.6,127.3h0Z"/>
      <path class="st5" d="M396.8,203.6c0,6.6-5.3,12-12,12.1l-123.7.6c-6.6,0-12-5.3-12.1-11.9l-.6-127.3c0-6.6,5.3-12,11.9-12.1l123.7-.6c6.6,0,12,5.3,12.1,12l.6,127.3h0Z"/>
      <polygon class="st6" points="301.9 64.7 302.2 115.6 302.2 121.5 302.2 130.5 305.4 124.3 308.9 130.9 312.3 124.2 315.7 130.9 319.1 124.2 322.6 130.8 325.9 124.2 329.4 130.8 332.8 124.1 336.2 130.8 339.6 124.1 343 130.5 342.9 121.3 342.9 115.4 342.6 64.5 301.9 64.7"/>
    </g>
    <g>
      <path class="st4" d="M373.9,371.3c0,7.5-6,13.6-13.4,13.6l-139.3.7c-7.5,0-13.5-6-13.6-13.5l-.7-143.4c0-7.5,6-13.5,13.5-13.6l139.3-.7c7.5,0,13.5,6,13.6,13.5l.7,143.4h0Z"/>
      <path class="st0" d="M405.6,371.1c0,7.5-6,13.5-13.5,13.6l-139.3.7c-7.5,0-13.6-6-13.6-13.5l-.7-143.4c0-7.5,6-13.5,13.5-13.6l139.3-.7c7.5,0,13.5,6,13.6,13.5l.7,143.4h0Z"/>
      <polygon class="st6" points="298.7 214.8 299 272.1 299 278.7 299.1 288.9 302.6 281.8 306.5 289.3 310.4 281.8 314.2 289.3 318.1 281.7 321.9 289.2 325.8 281.7 329.6 289.2 333.5 281.7 337.4 289.1 341.2 281.6 344.9 288.9 344.9 278.5 344.9 271.9 344.6 214.6 298.7 214.8"/>
    </g>
    <g>
      <path class="st4" d="M539.8,319.4c3.4,7,.5,15.4-6.5,18.9l-130.7,63.5c-7,3.4-15.4.5-18.9-6.5l-65.4-134.6c-3.4-7-.5-15.4,6.5-18.9l130.7-63.5c7-3.4,15.4-.5,18.9,6.5l65.4,134.6h0Z"/>
      <path class="st0" d="M569.5,304.9c3.4,7,.5,15.5-6.5,18.9l-130.7,63.5c-7,3.4-15.4.5-18.9-6.5l-65.4-134.6c-3.4-7-.5-15.4,6.5-18.9l130.7-63.5c7-3.4,15.4-.5,18.9,6.5l65.4,134.6h0Z"/>
      <polygon class="st6" points="398.4 206.1 424.5 259.9 427.5 266.1 432.2 275.6 432.4 267.4 439.4 272.6 439.6 263.9 446.6 269.1 446.8 260.3 453.9 265.6 454.1 256.8 461.1 262.1 461.3 253.3 468.3 258.6 468.5 249.8 475.3 254.9 470.6 245.1 467.6 239 441.4 185.2 398.4 206.1"/>
    </g>
    <path class="st3" d="M517.3,410.9H205c-6,0-11.3-4.1-12.7-10l-61.2-248.8c-1-4,0-8.3,2.6-11.5,2.6-3.2,6.6-4.9,10.7-4.8,42,2,410.7,19.6,430.4,22.3,15.6,2.2,27.4,8.6,34.3,18.7,4.5,6.6,9,18,4.8,35.2-1.5,6.3-4.4,18.3-7.8,32.9-9.8,41.1-24.5,103.2-28.4,117.7-7,25.9-39.1,48.2-60.5,48.2h0ZM215.2,384.7h302c9.8,0,31.3-14.5,35.2-28.8,3.8-14.1,18.5-76,28.2-116.9,3.5-14.7,6.3-26.7,7.8-33,1.5-6.3,1.2-11.1-1-14.3-2.6-3.7-8.3-6.4-16.3-7.5-13.5-1.9-246.5-13.4-410.5-21.3l54.6,221.8h0Z"/>
    <g>
      <path class="st3" d="M316.9,558c.1,24.6-19.7,44.6-44.3,44.7-24.6.1-44.6-19.7-44.7-44.3-.1-24.6,19.7-44.6,44.3-44.7,24.6-.1,44.6,19.7,44.7,44.3h0Z"/>
      <path class="st1" d="M298.9,558.1c0,14.6-11.7,26.5-26.3,26.6-14.6,0-26.5-11.7-26.6-26.3,0-14.6,11.7-26.5,26.3-26.6,14.6,0,26.5,11.7,26.6,26.3Z"/>
    </g>
    <g>
      <path class="st3" d="M559.2,558c.1,24.6-19.7,44.6-44.3,44.7-24.6.1-44.6-19.7-44.7-44.3-.1-24.6,19.7-44.6,44.3-44.7,24.6-.1,44.6,19.7,44.7,44.3Z"/>
      <path class="st1" d="M541.2,558.1c0,14.6-11.7,26.5-26.3,26.6-14.6,0-26.5-11.7-26.6-26.3,0-14.6,11.7-26.5,26.3-26.6,14.6,0,26.5,11.7,26.6,26.3Z"/>
    </g>
    <path class="st3" d="M286.3,555.5c0,7.7-6.2,13.9-13.9,13.9h0c-7.7,0-13.9-6.2-13.9-13.9v-47.5c0-7.7,6.2-13.9,13.9-13.9h0c7.7,0,13.9,6.2,13.9,13.9v47.5Z"/>
    <path class="st3" d="M528.7,555.5c0,7.7-6.2,13.9-13.9,13.9h0c-7.7,0-13.9-6.2-13.9-13.9v-47.5c0-7.7,6.2-13.9,13.9-13.9h0c7.7,0,13.9,6.2,13.9,13.9v47.5Z"/>
    <path class="st3" d="M571.5,512H227.9c-6,0-11.3-4.1-12.7-9.9-.8-3.3-83.2-335-94.6-383.3-2.3-9.7-6.8-16.5-13.8-20.8-15.5-9.6-38.1-4.3-38.4-4.3-7,1.7-14.1-2.6-15.8-9.7-1.7-7,2.6-14.1,9.6-15.8,1.3-.3,33.2-7.9,58.2,7.3,13.2,8,21.8,20.5,25.8,37.2,10.3,43.3,78.2,317.1,92.1,373h333.3c7.2,0,13.1,5.9,13.1,13.1s-5.9,13.1-13.1,13.1h0Z"/>
    <path class="st3" d="M401.5,410.9c-7.2,0-13.1-5.9-13.1-13.1v-236.2c0-7.2,5.9-13.1,13.1-13.1s13.1,5.9,13.1,13.1v236.2c0,7.2-5.9,13.1-13.1,13.1Z"/>
    <path class="st3" d="M308.6,410.9c-6.2,0-11.7-4.4-12.9-10.7l-44.5-243.5c-1.3-7.1,3.4-13.9,10.5-15.2,7.1-1.3,13.9,3.4,15.2,10.5l44.5,243.5c1.3,7.1-3.4,13.9-10.5,15.2-.8.1-1.6.2-2.4.2h0Z"/>
    <path class="st3" d="M478.6,410.9c-.8,0-1.6,0-2.4-.2-7.1-1.3-11.8-8.1-10.5-15.2l42-229.9c1.3-7.1,8.1-11.8,15.2-10.5,7.1,1.3,11.8,8.1,10.5,15.2l-42,229.9c-1.2,6.3-6.7,10.7-12.9,10.7h0Z"/>
    <path class="st3" d="M584.4,292.8H175.9c-7.2,0-13.1-5.9-13.1-13.1s5.9-13.1,13.1-13.1h408.5c7.2,0,13.1,5.9,13.1,13.1s-5.9,13.1-13.1,13.1h0Z"/>
  </g>
</svg>